<svg width="38" height="38" viewBox="0 0 38 38" fill="none" xmlns="http://www.w3.org/2000/svg">
<path d="M23.75 18.8716C23.416 22.6567 20.7723 24.8091 17.7717 24.8091C14.771 24.8091 12.7738 22.1506 13.0625 18.8716C13.3512 15.5926 15.8175 12.9341 18.8182 12.9341C21.8188 12.9341 24.038 15.606 23.75 18.8716Z" stroke="#B0B0B0" stroke-width="4" stroke-linecap="round" stroke-linejoin="round"/>
<path d="M23.7329 30.8579C21.6132 31.7485 20.2238 31.9341 17.8488 31.9341C10.6348 31.9341 5.30587 26.0856 5.93748 18.8716C6.56908 11.6575 12.937 5.80908 20.1511 5.80908C28.2773 5.80908 32.7445 11.1328 32.1167 18.2578C31.6483 23.5771 28.2491 25.1097 26.4694 24.7942C24.795 24.4974 23.413 22.9818 23.6683 20.0814L24.2977 12.9378" stroke="#B0B0B0" stroke-width="4" stroke-linecap="round" stroke-linejoin="round"/>
</svg>
