<svg width="46" height="46" viewBox="0 0 46 46" fill="none" xmlns="http://www.w3.org/2000/svg">
<path d="M40.9032 2.875H5.09684C4.50764 2.87524 3.94265 3.1094 3.52602 3.52602C3.1094 3.94265 2.87524 4.50764 2.875 5.09684V40.9032C2.87524 41.4924 3.1094 42.0574 3.52602 42.474C3.94265 42.8906 4.50764 43.1248 5.09684 43.125H23V27.3125H18.1889V21.5625H23V16.9805C23 11.7821 26.6054 8.95203 31.2495 8.95203C33.4713 8.95203 35.8611 9.11914 36.4164 9.19281V14.6221H32.7166C30.1902 14.6221 29.7086 15.817 29.7086 17.5779V21.5625H35.7282L34.942 27.3125H29.7086V43.125H40.9032C41.4924 43.1248 42.0574 42.8906 42.474 42.474C42.8906 42.0574 43.1248 41.4924 43.125 40.9032V5.09684C43.1248 4.50764 42.8906 3.94265 42.474 3.52602C42.0574 3.1094 41.4924 2.87524 40.9032 2.875Z" fill="#676767"/>
</svg>
