<svg width="48" height="48" viewBox="0 0 48 48" fill="none" xmlns="http://www.w3.org/2000/svg">
<path d="M32.7497 6.49969C35.0684 6.50661 37.2901 7.43077 38.9297 9.07034C40.5692 10.7099 41.4934 12.9316 41.5003 15.2503V32.7497C41.4934 35.0684 40.5692 37.2901 38.9297 38.9297C37.2901 40.5692 35.0684 41.4934 32.7497 41.5003H15.2503C12.9316 41.4934 10.7099 40.5692 9.07034 38.9297C7.43077 37.2901 6.50661 35.0684 6.49969 32.7497V15.2503C6.50661 12.9316 7.43077 10.7099 9.07034 9.07034C10.7099 7.43077 12.9316 6.50661 15.2503 6.49969H32.7497ZM32.7497 3H15.2503C8.5125 3 3 8.5125 3 15.2503V32.7497C3 39.4875 8.5125 45 15.2503 45H32.7497C39.4875 45 45 39.4875 45 32.7497V15.2503C45 8.5125 39.4875 3 32.7497 3Z" fill="#676767"/>
<path d="M35.3747 15.2502C34.8555 15.2502 34.348 15.0963 33.9163 14.8079C33.4846 14.5194 33.1482 14.1094 32.9495 13.6298C32.7508 13.1501 32.6988 12.6223 32.8001 12.1131C32.9014 11.6039 33.1514 11.1362 33.5185 10.7691C33.8857 10.402 34.3534 10.152 34.8626 10.0507C35.3718 9.9494 35.8996 10.0014 36.3792 10.2001C36.8589 10.3987 37.2689 10.7352 37.5573 11.1669C37.8457 11.5986 37.9997 12.1061 37.9997 12.6252C38.0004 12.9702 37.933 13.3118 37.8014 13.6307C37.6697 13.9495 37.4764 14.2392 37.2325 14.4831C36.9886 14.727 36.6989 14.9203 36.3801 15.0519C36.0613 15.1836 35.7196 15.251 35.3747 15.2502Z" fill="#676767"/>
<path d="M24 16.9997C25.3845 16.9997 26.738 17.4102 27.8892 18.1795C29.0404 18.9487 29.9376 20.042 30.4674 21.3211C30.9973 22.6002 31.1359 24.0078 30.8658 25.3657C30.5957 26.7236 29.929 27.971 28.95 28.95C27.971 29.929 26.7236 30.5957 25.3657 30.8658C24.0078 31.1359 22.6002 30.9973 21.3211 30.4674C20.042 29.9376 18.9487 29.0404 18.1795 27.8892C17.4103 26.738 16.9997 25.3845 16.9997 24C17.0017 22.144 17.7398 20.3646 19.0522 19.0522C20.3646 17.7398 22.144 17.0017 24 16.9997ZM24 13.5C21.9233 13.5 19.8932 14.1158 18.1665 15.2696C16.4398 16.4233 15.094 18.0632 14.2993 19.9818C13.5045 21.9004 13.2966 24.0117 13.7018 26.0485C14.1069 28.0853 15.1069 29.9562 16.5754 31.4246C18.0438 32.8931 19.9148 33.8931 21.9516 34.2982C23.9884 34.7034 26.0995 34.4955 28.0182 33.7007C29.9368 32.906 31.5767 31.5602 32.7304 29.8335C33.8842 28.1068 34.5 26.0767 34.5 24C34.5 21.2152 33.3937 18.5445 31.4246 16.5754C29.4555 14.6062 26.7848 13.5 24 13.5Z" fill="#676767"/>
</svg>
