<svg width="44" height="44" viewBox="0 0 44 44" fill="none" xmlns="http://www.w3.org/2000/svg">
<path d="M42.625 9.41017C41.0777 10.0825 39.4405 10.5255 37.7652 10.725C39.5258 9.69409 40.8498 8.05628 41.4889 6.11876C39.8244 7.09209 38.0063 7.77501 36.1127 8.1383C35.3152 7.30258 34.3562 6.63774 33.2938 6.1842C32.2315 5.73066 31.088 5.49788 29.9329 5.50001C25.2562 5.50001 21.4715 9.2297 21.4715 13.8274C21.4682 14.4669 21.5415 15.1045 21.6898 15.7266C18.3362 15.5694 15.0524 14.7139 12.0484 13.2148C9.04444 11.7158 6.38643 9.60624 4.24445 7.02111C3.49299 8.28793 3.09558 9.73333 3.09375 11.2063C3.09375 14.0938 4.60023 16.6461 6.875 18.1414C5.52727 18.1094 4.20715 17.7527 3.02672 17.1016V17.2047C3.02672 21.2438 5.94859 24.6039 9.81578 25.3688C9.08856 25.5626 8.33918 25.6608 7.58656 25.661C7.05253 25.6619 6.51971 25.6101 5.99586 25.5063C7.07094 28.8149 10.1999 31.2211 13.9064 31.2899C10.8946 33.611 7.19694 34.8655 3.39453 34.8563C2.71959 34.8553 2.04528 34.8151 1.375 34.736C5.2432 37.206 9.73968 38.5125 14.3292 38.5C29.9148 38.5 38.4295 25.807 38.4295 14.7985C38.4295 14.4375 38.4201 14.0766 38.4029 13.7242C40.0555 12.5487 41.4853 11.0878 42.625 9.41017Z" fill="#676767"/>
</svg>
