<svg width="52" height="52" viewBox="0 0 52 52" fill="none" xmlns="http://www.w3.org/2000/svg">
<path fill-rule="evenodd" clip-rule="evenodd" d="M42.121 9.86182C40.0177 7.75752 37.519 6.09001 34.7686 4.95529C32.0183 3.82057 29.0707 3.24106 26.0955 3.2501C13.6094 3.2501 3.445 13.3637 3.43992 25.797C3.4344 29.756 4.47799 33.6458 6.46445 37.0704L3.25 48.7501L15.2598 45.6149C18.5841 47.4158 22.3055 48.3584 26.0863 48.3571H26.0955C38.5805 48.3571 48.7439 38.2424 48.75 25.8102C48.7576 22.8451 48.1754 19.9082 47.0373 17.1702C45.8993 14.4322 44.2281 11.9479 42.121 9.86182ZM26.0955 44.5515H26.0873C22.7169 44.5525 19.4077 43.6505 16.5039 41.9393L15.8163 41.5331L8.68969 43.3937L10.592 36.4783L10.1441 35.7674C8.25945 32.7836 7.26095 29.3261 7.26477 25.797C7.26477 15.465 15.7158 7.0587 26.1026 7.0587C31.0852 7.0498 35.8674 9.02041 39.3972 12.5371C42.927 16.0538 44.9155 20.8286 44.9252 25.8112C44.9211 36.1442 36.4741 44.5515 26.0955 44.5515ZM36.4234 30.5166C35.8577 30.2342 33.0718 28.8713 32.5559 28.6834C32.0399 28.4955 31.6591 28.401 31.2823 28.9657C30.9055 29.5304 29.8198 30.7939 29.4897 31.1747C29.1596 31.5556 28.8295 31.5972 28.2638 31.3149C27.6981 31.0325 25.873 30.4384 23.7108 28.5189C22.0279 27.0249 20.8924 25.1805 20.5623 24.6168C20.2323 24.0532 20.5268 23.7474 20.8102 23.4671C21.0651 23.2142 21.3759 22.809 21.6592 22.4799C21.9426 22.1509 22.037 21.9153 22.2249 21.5395C22.4128 21.1637 22.3194 20.8346 22.1782 20.5533C22.037 20.272 20.9046 17.4983 20.4334 16.3699C19.9733 15.271 19.5071 15.4203 19.1598 15.4031C18.8297 15.3868 18.4488 15.3828 18.0741 15.3828C17.7876 15.3902 17.5057 15.4567 17.246 15.5779C16.9863 15.6992 16.7545 15.8727 16.5648 16.0876C16.0459 16.6523 14.5834 18.0173 14.5834 20.7879C14.5834 23.5585 16.6146 26.2398 16.8949 26.6156C17.1752 26.9914 20.8863 32.6819 26.5647 35.1224C27.6191 35.574 28.6965 35.97 29.7923 36.3087C31.1482 36.7373 32.3822 36.6774 33.3572 36.5321C34.4449 36.3707 36.7088 35.1692 37.179 33.8529C37.6492 32.5367 37.6502 31.4093 37.5091 31.1747C37.3679 30.9401 36.9901 30.7979 36.4234 30.5166Z" fill="#676767"/>
</svg>
