<svg width="192" height="191" viewBox="0 0 192 191" fill="none" xmlns="http://www.w3.org/2000/svg">
<path d="M22.104 171.244C21.768 171.58 21.276 171.832 20.628 172C20.004 172.192 19.248 172.288 18.36 172.288C17.472 172.288 16.632 172.156 15.84 171.892C15.048 171.628 14.4 170.992 13.896 169.984L10.332 162.712C9.972 161.968 9.648 161.272 9.36 160.624C9.072 159.952 8.76 159.184 8.424 158.32L8.208 158.356C8.304 159.652 8.352 160.972 8.352 162.316C8.376 163.66 8.388 164.98 8.388 166.276V171.856C8.124 171.928 7.716 172 7.164 172.072C6.636 172.144 6.108 172.18 5.58 172.18C5.052 172.18 4.584 172.144 4.176 172.072C3.768 172 3.432 171.856 3.168 171.64C2.904 171.424 2.7 171.136 2.556 170.776C2.412 170.392 2.34 169.9 2.34 169.3V151.3C2.676 150.82 3.192 150.46 3.888 150.22C4.584 149.98 5.328 149.86 6.12 149.86C7.008 149.86 7.848 150.004 8.64 150.292C9.456 150.556 10.104 151.18 10.584 152.164L14.184 159.436C14.544 160.18 14.868 160.888 15.156 161.56C15.444 162.208 15.756 162.964 16.092 163.828L16.272 163.792C16.176 162.496 16.116 161.2 16.092 159.904C16.068 158.608 16.056 157.312 16.056 156.016V150.184C16.32 150.112 16.716 150.04 17.244 149.968C17.796 149.896 18.336 149.86 18.864 149.86C19.92 149.86 20.724 150.052 21.276 150.436C21.828 150.796 22.104 151.564 22.104 152.74V171.244ZM44.4136 163.252C44.4136 164.74 44.1856 166.072 43.7296 167.248C43.2736 168.4 42.6256 169.372 41.7856 170.164C40.9696 170.956 39.9856 171.556 38.8336 171.964C37.6816 172.372 36.3976 172.576 34.9816 172.576C33.5656 172.576 32.2816 172.36 31.1296 171.928C29.9776 171.496 28.9816 170.884 28.1416 170.092C27.3256 169.276 26.6896 168.292 26.2336 167.14C25.7776 165.988 25.5496 164.692 25.5496 163.252C25.5496 161.836 25.7776 160.552 26.2336 159.4C26.6896 158.248 27.3256 157.276 28.1416 156.484C28.9816 155.668 29.9776 155.044 31.1296 154.612C32.2816 154.18 33.5656 153.964 34.9816 153.964C36.3976 153.964 37.6816 154.192 38.8336 154.648C39.9856 155.08 40.9696 155.704 41.7856 156.52C42.6256 157.312 43.2736 158.284 43.7296 159.436C44.1856 160.588 44.4136 161.86 44.4136 163.252ZM31.8136 163.252C31.8136 164.716 32.0896 165.844 32.6416 166.636C33.2176 167.404 34.0096 167.788 35.0176 167.788C36.0256 167.788 36.7936 167.392 37.3216 166.6C37.8736 165.808 38.1496 164.692 38.1496 163.252C38.1496 161.812 37.8736 160.708 37.3216 159.94C36.7696 159.148 35.9896 158.752 34.9816 158.752C33.9736 158.752 33.1936 159.148 32.6416 159.94C32.0896 160.708 31.8136 161.812 31.8136 163.252ZM53.5193 165.988C53.5193 166.612 53.7113 167.056 54.0953 167.32C54.5033 167.584 55.0673 167.716 55.7873 167.716C56.1473 167.716 56.5193 167.692 56.9033 167.644C57.2873 167.572 57.6233 167.488 57.9113 167.392C58.1273 167.656 58.3073 167.956 58.4513 168.292C58.6193 168.604 58.7033 168.988 58.7033 169.444C58.7033 170.356 58.3553 171.1 57.6593 171.676C56.9873 172.252 55.7873 172.54 54.0593 172.54C51.9473 172.54 50.3153 172.06 49.1633 171.1C48.0353 170.14 47.4713 168.58 47.4713 166.42V151.012C47.7353 150.94 48.1073 150.868 48.5873 150.796C49.0913 150.7 49.6193 150.652 50.1713 150.652C51.2273 150.652 52.0433 150.844 52.6193 151.228C53.2193 151.588 53.5193 152.368 53.5193 153.568V155.872H58.2353C58.3793 156.136 58.5113 156.472 58.6313 156.88C58.7753 157.264 58.8473 157.696 58.8473 158.176C58.8473 159.016 58.6553 159.628 58.2713 160.012C57.9113 160.372 57.4193 160.552 56.7953 160.552H53.5193V165.988ZM61.6694 149.644C61.6694 148.732 61.9694 147.964 62.5694 147.34C63.1934 146.716 64.0094 146.404 65.0174 146.404C66.0254 146.404 66.8294 146.716 67.4294 147.34C68.0534 147.964 68.3654 148.732 68.3654 149.644C68.3654 150.556 68.0534 151.324 67.4294 151.948C66.8294 152.572 66.0254 152.884 65.0174 152.884C64.0094 152.884 63.1934 152.572 62.5694 151.948C61.9694 151.324 61.6694 150.556 61.6694 149.644ZM68.0774 171.964C67.8134 172.012 67.4174 172.072 66.8894 172.144C66.3854 172.24 65.8694 172.288 65.3414 172.288C64.8134 172.288 64.3334 172.252 63.9014 172.18C63.4934 172.108 63.1454 171.964 62.8574 171.748C62.5694 171.532 62.3414 171.244 62.1734 170.884C62.0294 170.5 61.9574 170.008 61.9574 169.408V154.756C62.2214 154.708 62.6054 154.648 63.1094 154.576C63.6374 154.48 64.1654 154.432 64.6934 154.432C65.2214 154.432 65.6894 154.468 66.0974 154.54C66.5294 154.612 66.8894 154.756 67.1774 154.972C67.4654 155.188 67.6814 155.488 67.8254 155.872C67.9934 156.232 68.0774 156.712 68.0774 157.312V171.964ZM72.0456 154.504C72.0456 153.28 72.2496 152.236 72.6576 151.372C73.0896 150.484 73.6656 149.764 74.3856 149.212C75.1056 148.636 75.9456 148.216 76.9056 147.952C77.8896 147.688 78.9336 147.556 80.0376 147.556C81.8136 147.556 83.1216 147.796 83.9616 148.276C84.8016 148.732 85.2216 149.524 85.2216 150.652C85.2216 151.132 85.1136 151.564 84.8976 151.948C84.7056 152.332 84.4896 152.62 84.2496 152.812C83.7936 152.692 83.3136 152.596 82.8096 152.524C82.3296 152.428 81.7656 152.38 81.1176 152.38C80.0856 152.38 79.2816 152.56 78.7056 152.92C78.1296 153.256 77.8416 153.856 77.8416 154.72V155.872H83.7456C83.8896 156.136 84.0216 156.472 84.1416 156.88C84.2856 157.264 84.3576 157.696 84.3576 158.176C84.3576 159.016 84.1656 159.628 83.7816 160.012C83.4216 160.372 82.9296 160.552 82.3056 160.552H78.1656V171.964C77.9256 172.036 77.5416 172.108 77.0136 172.18C76.5096 172.252 75.9816 172.288 75.4296 172.288C74.9016 172.288 74.4216 172.252 73.9896 172.18C73.5816 172.108 73.2336 171.964 72.9456 171.748C72.6576 171.532 72.4296 171.244 72.2616 170.884C72.1176 170.5 72.0456 170.008 72.0456 169.408V154.504ZM87.2016 149.644C87.2016 148.732 87.5016 147.964 88.1016 147.34C88.7256 146.716 89.5416 146.404 90.5496 146.404C91.5576 146.404 92.3616 146.716 92.9616 147.34C93.5856 147.964 93.8976 148.732 93.8976 149.644C93.8976 150.556 93.5856 151.324 92.9616 151.948C92.3616 152.572 91.5576 152.884 90.5496 152.884C89.5416 152.884 88.7256 152.572 88.1016 151.948C87.5016 151.324 87.2016 150.556 87.2016 149.644ZM93.6096 171.964C93.3456 172.012 92.9496 172.072 92.4216 172.144C91.9176 172.24 91.4016 172.288 90.8736 172.288C90.3456 172.288 89.8656 172.252 89.4336 172.18C89.0256 172.108 88.6776 171.964 88.3896 171.748C88.1016 171.532 87.8736 171.244 87.7056 170.884C87.5616 170.5 87.4896 170.008 87.4896 169.408V154.756C87.7536 154.708 88.1376 154.648 88.6416 154.576C89.1696 154.48 89.6976 154.432 90.2256 154.432C90.7536 154.432 91.2216 154.468 91.6296 154.54C92.0616 154.612 92.4216 154.756 92.7096 154.972C92.9976 155.188 93.2136 155.488 93.3576 155.872C93.5256 156.232 93.6096 156.712 93.6096 157.312V171.964ZM107.361 158.788C106.761 158.788 106.185 158.884 105.633 159.076C105.105 159.268 104.637 159.556 104.229 159.94C103.845 160.3 103.533 160.756 103.293 161.308C103.053 161.86 102.933 162.508 102.933 163.252C102.933 164.74 103.353 165.856 104.193 166.6C105.057 167.344 106.101 167.716 107.325 167.716C108.045 167.716 108.669 167.632 109.197 167.464C109.725 167.296 110.193 167.116 110.601 166.924C111.081 167.26 111.441 167.632 111.681 168.04C111.921 168.424 112.041 168.892 112.041 169.444C112.041 170.428 111.573 171.196 110.637 171.748C109.701 172.276 108.405 172.54 106.749 172.54C105.237 172.54 103.869 172.324 102.645 171.892C101.421 171.436 100.365 170.812 99.477 170.02C98.613 169.204 97.941 168.232 97.461 167.104C96.981 165.976 96.741 164.728 96.741 163.36C96.741 161.776 96.993 160.396 97.497 159.22C98.025 158.02 98.733 157.036 99.621 156.268C100.509 155.5 101.529 154.924 102.681 154.54C103.857 154.156 105.093 153.964 106.389 153.964C108.117 153.964 109.449 154.276 110.385 154.9C111.321 155.524 111.789 156.328 111.789 157.312C111.789 157.768 111.681 158.2 111.465 158.608C111.249 158.992 110.997 159.328 110.709 159.616C110.301 159.424 109.809 159.244 109.233 159.076C108.657 158.884 108.033 158.788 107.361 158.788ZM122.598 168.112C123.006 168.112 123.45 168.076 123.93 168.004C124.434 167.908 124.806 167.788 125.046 167.644V164.764L122.454 164.98C121.782 165.028 121.23 165.172 120.798 165.412C120.366 165.652 120.15 166.012 120.15 166.492C120.15 166.972 120.33 167.368 120.69 167.68C121.074 167.968 121.71 168.112 122.598 168.112ZM122.31 153.964C123.606 153.964 124.782 154.096 125.838 154.36C126.918 154.624 127.83 155.032 128.574 155.584C129.342 156.112 129.93 156.796 130.338 157.636C130.746 158.452 130.95 159.424 130.95 160.552V168.616C130.95 169.24 130.77 169.756 130.41 170.164C130.074 170.548 129.666 170.884 129.186 171.172C127.626 172.108 125.43 172.576 122.598 172.576C121.326 172.576 120.174 172.456 119.142 172.216C118.134 171.976 117.258 171.616 116.514 171.136C115.794 170.656 115.23 170.044 114.822 169.3C114.438 168.556 114.246 167.692 114.246 166.708C114.246 165.052 114.738 163.78 115.722 162.892C116.706 162.004 118.23 161.452 120.294 161.236L125.01 160.732V160.48C125.01 159.784 124.698 159.292 124.074 159.004C123.474 158.692 122.598 158.536 121.446 158.536C120.534 158.536 119.646 158.632 118.782 158.824C117.918 159.016 117.138 159.256 116.442 159.544C116.13 159.328 115.866 159.004 115.65 158.572C115.434 158.116 115.326 157.648 115.326 157.168C115.326 156.544 115.47 156.052 115.758 155.692C116.07 155.308 116.538 154.984 117.162 154.72C117.858 154.456 118.674 154.264 119.61 154.144C120.57 154.024 121.47 153.964 122.31 153.964ZM141.136 172.252C140.032 172.012 139.036 171.628 138.148 171.1C137.26 170.572 136.504 169.924 135.88 169.156C135.256 168.388 134.776 167.524 134.44 166.564C134.104 165.58 133.936 164.512 133.936 163.36C133.936 161.776 134.188 160.396 134.692 159.22C135.22 158.02 135.928 157.036 136.816 156.268C137.704 155.5 138.724 154.924 139.876 154.54C141.052 154.156 142.288 153.964 143.584 153.964C145.312 153.964 146.644 154.276 147.58 154.9C148.516 155.524 148.984 156.328 148.984 157.312C148.984 157.768 148.876 158.2 148.66 158.608C148.444 158.992 148.192 159.328 147.904 159.616C147.496 159.424 147.004 159.244 146.428 159.076C145.852 158.884 145.228 158.788 144.556 158.788C143.956 158.788 143.38 158.884 142.828 159.076C142.3 159.268 141.832 159.556 141.424 159.94C141.04 160.3 140.728 160.756 140.488 161.308C140.248 161.86 140.128 162.508 140.128 163.252C140.128 164.74 140.548 165.856 141.388 166.6C142.252 167.344 143.296 167.716 144.52 167.716C145.24 167.716 145.864 167.632 146.392 167.464C146.92 167.296 147.388 167.116 147.796 166.924C148.276 167.26 148.636 167.632 148.876 168.04C149.116 168.424 149.236 168.892 149.236 169.444C149.236 170.188 148.948 170.812 148.372 171.316C147.82 171.82 147.028 172.168 145.996 172.36C146.188 172.696 146.332 173.14 146.428 173.692C146.524 174.244 146.572 174.724 146.572 175.132C146.572 176.356 146.188 177.364 145.42 178.156C144.652 178.972 143.584 179.38 142.216 179.38C141.232 179.38 140.428 179.128 139.804 178.624C139.18 178.144 138.868 177.448 138.868 176.536C138.868 176.128 138.916 175.768 139.012 175.456C139.78 175.408 140.38 175.216 140.812 174.88C141.244 174.568 141.46 174.136 141.46 173.584C141.46 173.344 141.424 173.104 141.352 172.864C141.304 172.648 141.232 172.444 141.136 172.252ZM159.969 168.112C160.377 168.112 160.821 168.076 161.301 168.004C161.805 167.908 162.177 167.788 162.417 167.644V164.764L159.825 164.98C159.153 165.028 158.601 165.172 158.169 165.412C157.737 165.652 157.521 166.012 157.521 166.492C157.521 166.972 157.701 167.368 158.061 167.68C158.445 167.968 159.081 168.112 159.969 168.112ZM159.681 153.964C160.977 153.964 162.153 154.096 163.209 154.36C164.289 154.624 165.201 155.032 165.945 155.584C166.713 156.112 167.301 156.796 167.709 157.636C168.117 158.452 168.321 159.424 168.321 160.552V168.616C168.321 169.24 168.141 169.756 167.781 170.164C167.445 170.548 167.037 170.884 166.557 171.172C164.997 172.108 162.801 172.576 159.969 172.576C158.697 172.576 157.545 172.456 156.513 172.216C155.505 171.976 154.629 171.616 153.885 171.136C153.165 170.656 152.601 170.044 152.193 169.3C151.809 168.556 151.617 167.692 151.617 166.708C151.617 165.052 152.109 163.78 153.093 162.892C154.077 162.004 155.601 161.452 157.665 161.236L162.381 160.732V160.48C162.381 159.784 162.069 159.292 161.445 159.004C160.845 158.692 159.969 158.536 158.817 158.536C157.905 158.536 157.017 158.632 156.153 158.824C155.289 159.016 154.509 159.256 153.813 159.544C153.501 159.328 153.237 159.004 153.021 158.572C152.805 158.116 152.697 157.648 152.697 157.168C152.697 156.544 152.841 156.052 153.129 155.692C153.441 155.308 153.909 154.984 154.533 154.72C155.229 154.456 156.045 154.264 156.981 154.144C157.941 154.024 158.841 153.964 159.681 153.964ZM160.473 146.908C160.905 147.028 161.265 147.124 161.553 147.196C161.841 147.268 162.081 147.304 162.273 147.304C162.801 147.304 163.209 147.148 163.497 146.836C163.785 146.524 163.989 146.26 164.109 146.044C164.949 146.044 165.645 146.32 166.197 146.872C166.773 147.4 167.061 148.084 167.061 148.924C167.061 150.004 166.725 150.796 166.053 151.3C165.381 151.804 164.541 152.056 163.533 152.056C163.197 152.056 162.861 152.044 162.525 152.02C162.189 151.972 161.817 151.888 161.409 151.768L159.969 151.336C159.633 151.24 159.345 151.168 159.105 151.12C158.889 151.048 158.673 151.012 158.457 151.012C157.929 151.012 157.521 151.168 157.233 151.48C156.969 151.768 156.765 152.032 156.621 152.272C155.781 152.272 155.073 152.008 154.497 151.48C153.945 150.928 153.669 150.232 153.669 149.392C153.669 148.864 153.765 148.408 153.957 148.024C154.173 147.616 154.449 147.28 154.785 147.016C155.121 146.752 155.493 146.56 155.901 146.44C156.333 146.32 156.765 146.26 157.197 146.26C157.509 146.26 157.881 146.296 158.313 146.368C158.769 146.44 159.489 146.62 160.473 146.908ZM190.171 163.252C190.171 164.74 189.943 166.072 189.487 167.248C189.031 168.4 188.383 169.372 187.543 170.164C186.727 170.956 185.743 171.556 184.591 171.964C183.439 172.372 182.155 172.576 180.739 172.576C179.323 172.576 178.039 172.36 176.887 171.928C175.735 171.496 174.739 170.884 173.899 170.092C173.083 169.276 172.447 168.292 171.991 167.14C171.535 165.988 171.307 164.692 171.307 163.252C171.307 161.836 171.535 160.552 171.991 159.4C172.447 158.248 173.083 157.276 173.899 156.484C174.739 155.668 175.735 155.044 176.887 154.612C178.039 154.18 179.323 153.964 180.739 153.964C182.155 153.964 183.439 154.192 184.591 154.648C185.743 155.08 186.727 155.704 187.543 156.52C188.383 157.312 189.031 158.284 189.487 159.436C189.943 160.588 190.171 161.86 190.171 163.252ZM177.571 163.252C177.571 164.716 177.847 165.844 178.399 166.636C178.975 167.404 179.767 167.788 180.775 167.788C181.783 167.788 182.551 167.392 183.079 166.6C183.631 165.808 183.907 164.692 183.907 163.252C183.907 161.812 183.631 160.708 183.079 159.94C182.527 159.148 181.747 158.752 180.739 158.752C179.731 158.752 178.951 159.148 178.399 159.94C177.847 160.708 177.571 161.812 177.571 163.252Z" fill="#54B488"/>
<rect x="37" y="16" width="8" height="68" rx="4" fill="#54B488"/>
<rect x="143" y="16" width="8" height="68" rx="4" fill="#54B488"/>
<rect x="53" width="8" height="99" rx="4" fill="#54B488"/>
<rect x="127" width="8" height="99" rx="4" fill="#54B488"/>
</svg>
