<svg width="38" height="38" viewBox="0 0 38 38" fill="none" xmlns="http://www.w3.org/2000/svg">
<path d="M24.6881 4.79305C23.2438 3.23371 21.2266 2.375 19 2.375C16.7616 2.375 14.7376 3.22852 13.3 4.7782C11.8468 6.34496 11.1388 8.4743 11.305 10.7736C11.6345 15.3098 15.0865 19 19 19C22.9136 19 26.3595 15.3106 26.6943 10.7751C26.8627 8.49656 26.1502 6.37168 24.6881 4.79305Z" fill="#BFBFBF"/>
<path d="M32.0625 35.625H5.9375C5.59554 35.6294 5.2569 35.5576 4.9462 35.4147C4.63551 35.2718 4.36057 35.0615 4.1414 34.7989C3.65898 34.2223 3.46453 33.4348 3.60851 32.6384C4.23492 29.1635 6.18984 26.2445 9.2625 24.1953C11.9923 22.3762 15.4501 21.375 19 21.375C22.5499 21.375 26.0077 22.377 28.7375 24.1953C31.8102 26.2438 33.7651 29.1628 34.3915 32.6377C34.5355 33.4341 34.341 34.2215 33.8586 34.7982C33.6395 35.0609 33.3646 35.2714 33.0539 35.4144C32.7432 35.5574 32.4045 35.6294 32.0625 35.625Z" fill="#BFBFBF"/>
</svg>
