<svg width="120" height="191" viewBox="0 0 120 191" fill="none" xmlns="http://www.w3.org/2000/svg">
<rect x="41" width="38" height="96" fill="#54B488"/>
<rect x="12" y="67" width="38" height="96" transform="rotate(-90 12 67)" fill="#54B488"/>
<path d="M14.532 163.324C13.476 162.964 12.516 162.604 11.652 162.244C10.788 161.86 10.044 161.404 9.42 160.876C8.796 160.348 8.304 159.724 7.944 159.004C7.608 158.26 7.44 157.36 7.44 156.304C7.44 154.264 8.22 152.632 9.78 151.408C11.364 150.184 13.572 149.572 16.404 149.572C17.436 149.572 18.396 149.644 19.284 149.788C20.172 149.932 20.928 150.16 21.552 150.472C22.2 150.76 22.704 151.144 23.064 151.624C23.424 152.08 23.604 152.62 23.604 153.244C23.604 153.868 23.46 154.408 23.172 154.864C22.884 155.296 22.536 155.668 22.128 155.98C21.6 155.644 20.892 155.356 20.004 155.116C19.116 154.852 18.144 154.72 17.088 154.72C16.008 154.72 15.216 154.876 14.712 155.188C14.208 155.476 13.956 155.848 13.956 156.304C13.956 156.664 14.112 156.964 14.424 157.204C14.736 157.42 15.204 157.624 15.828 157.816L17.736 158.428C19.992 159.148 21.72 160.072 22.92 161.2C24.144 162.304 24.756 163.816 24.756 165.736C24.756 167.776 23.952 169.432 22.344 170.704C20.736 171.952 18.372 172.576 15.252 172.576C14.148 172.576 13.116 172.48 12.156 172.288C11.22 172.12 10.392 171.868 9.672 171.532C8.976 171.172 8.424 170.74 8.016 170.236C7.632 169.708 7.44 169.108 7.44 168.436C7.44 167.74 7.644 167.152 8.052 166.672C8.46 166.168 8.904 165.784 9.384 165.52C10.056 166.048 10.872 166.504 11.832 166.888C12.816 167.272 13.884 167.464 15.036 167.464C16.212 167.464 17.04 167.284 17.52 166.924C18 166.564 18.24 166.144 18.24 165.664C18.24 165.184 18.048 164.824 17.664 164.584C17.28 164.32 16.74 164.068 16.044 163.828L14.532 163.324ZM35.5397 168.112C35.9477 168.112 36.3917 168.076 36.8717 168.004C37.3757 167.908 37.7477 167.788 37.9877 167.644V164.764L35.3957 164.98C34.7237 165.028 34.1717 165.172 33.7397 165.412C33.3077 165.652 33.0917 166.012 33.0917 166.492C33.0917 166.972 33.2717 167.368 33.6317 167.68C34.0157 167.968 34.6517 168.112 35.5397 168.112ZM35.2517 153.964C36.5477 153.964 37.7237 154.096 38.7797 154.36C39.8597 154.624 40.7717 155.032 41.5157 155.584C42.2837 156.112 42.8717 156.796 43.2797 157.636C43.6877 158.452 43.8917 159.424 43.8917 160.552V168.616C43.8917 169.24 43.7117 169.756 43.3517 170.164C43.0157 170.548 42.6077 170.884 42.1277 171.172C40.5677 172.108 38.3717 172.576 35.5397 172.576C34.2677 172.576 33.1157 172.456 32.0837 172.216C31.0757 171.976 30.1997 171.616 29.4557 171.136C28.7357 170.656 28.1717 170.044 27.7637 169.3C27.3797 168.556 27.1877 167.692 27.1877 166.708C27.1877 165.052 27.6797 163.78 28.6637 162.892C29.6477 162.004 31.1717 161.452 33.2357 161.236L37.9517 160.732V160.48C37.9517 159.784 37.6397 159.292 37.0157 159.004C36.4157 158.692 35.5397 158.536 34.3877 158.536C33.4757 158.536 32.5877 158.632 31.7237 158.824C30.8597 159.016 30.0797 159.256 29.3837 159.544C29.0717 159.328 28.8077 159.004 28.5917 158.572C28.3757 158.116 28.2677 157.648 28.2677 157.168C28.2677 156.544 28.4117 156.052 28.6997 155.692C29.0117 155.308 29.4797 154.984 30.1037 154.72C30.7997 154.456 31.6157 154.264 32.5517 154.144C33.5117 154.024 34.4117 153.964 35.2517 153.964ZM47.6337 154.756C47.8737 154.684 48.2457 154.612 48.7497 154.54C49.2777 154.468 49.8177 154.432 50.3697 154.432C50.8977 154.432 51.3657 154.468 51.7737 154.54C52.2057 154.612 52.5657 154.756 52.8537 154.972C53.1417 155.188 53.3577 155.488 53.5017 155.872C53.6697 156.232 53.7537 156.712 53.7537 157.312V165.052C53.7537 166.036 53.9937 166.744 54.4737 167.176C54.9537 167.584 55.6497 167.788 56.5617 167.788C57.1137 167.788 57.5577 167.74 57.8937 167.644C58.2537 167.548 58.5297 167.452 58.7217 167.356V154.756C58.9617 154.684 59.3337 154.612 59.8377 154.54C60.3657 154.468 60.9057 154.432 61.4577 154.432C61.9857 154.432 62.4537 154.468 62.8617 154.54C63.2937 154.612 63.6537 154.756 63.9417 154.972C64.2297 155.188 64.4457 155.488 64.5897 155.872C64.7577 156.232 64.8417 156.712 64.8417 157.312V168.256C64.8417 169.456 64.3377 170.356 63.3297 170.956C62.4897 171.484 61.4817 171.88 60.3057 172.144C59.1537 172.432 57.8937 172.576 56.5257 172.576C55.2297 172.576 54.0297 172.432 52.9257 172.144C51.8457 171.856 50.9097 171.412 50.1177 170.812C49.3257 170.212 48.7137 169.444 48.2817 168.508C47.8497 167.548 47.6337 166.396 47.6337 165.052V154.756ZM57.3897 145.216C58.6377 145.216 59.5377 145.456 60.0897 145.936C60.6657 146.416 60.9537 146.992 60.9537 147.664C60.9537 148.288 60.7857 148.816 60.4497 149.248C60.1137 149.656 59.5617 150.064 58.7937 150.472L54.1497 152.92C53.4297 152.848 52.8177 152.56 52.3137 152.056C51.8097 151.552 51.5577 151.012 51.5577 150.436C51.5577 150.148 51.6297 149.86 51.7737 149.572C51.9177 149.284 52.1577 149.02 52.4937 148.78L57.3897 145.216ZM67.8308 163.252C67.8308 161.668 68.0708 160.3 68.5508 159.148C69.0308 157.972 69.6908 157 70.5308 156.232C71.3948 155.464 72.3908 154.9 73.5188 154.54C74.6708 154.156 75.9068 153.964 77.2268 153.964C77.7068 153.964 78.1748 154.012 78.6308 154.108C79.0868 154.18 79.4588 154.276 79.7468 154.396V148.564C79.9868 148.492 80.3708 148.42 80.8988 148.348C81.4268 148.252 81.9668 148.204 82.5188 148.204C83.0468 148.204 83.5148 148.24 83.9228 148.312C84.3548 148.384 84.7148 148.528 85.0028 148.744C85.2908 148.96 85.5068 149.26 85.6508 149.644C85.7948 150.004 85.8668 150.484 85.8668 151.084V168.148C85.8668 169.276 85.3388 170.176 84.2828 170.848C83.5868 171.304 82.6868 171.7 81.5828 172.036C80.4788 172.396 79.2068 172.576 77.7668 172.576C76.2068 172.576 74.8028 172.36 73.5548 171.928C72.3308 171.496 71.2868 170.872 70.4228 170.056C69.5828 169.24 68.9348 168.268 68.4788 167.14C68.0468 165.988 67.8308 164.692 67.8308 163.252ZM78.0548 158.752C76.7588 158.752 75.7628 159.124 75.0668 159.868C74.3708 160.612 74.0228 161.74 74.0228 163.252C74.0228 164.74 74.3468 165.868 74.9948 166.636C75.6428 167.38 76.5788 167.752 77.8028 167.752C78.2348 167.752 78.6188 167.692 78.9548 167.572C79.3148 167.428 79.5908 167.272 79.7828 167.104V159.184C79.3028 158.896 78.7268 158.752 78.0548 158.752ZM98.9326 172.576C97.5166 172.576 96.1966 172.384 94.9726 172C93.7726 171.592 92.7166 170.992 91.8046 170.2C90.9166 169.408 90.2086 168.412 89.6806 167.212C89.1766 166.012 88.9246 164.608 88.9246 163C88.9246 161.416 89.1766 160.06 89.6806 158.932C90.2086 157.78 90.8926 156.844 91.7326 156.124C92.5726 155.38 93.5326 154.84 94.6126 154.504C95.6926 154.144 96.7966 153.964 97.9246 153.964C99.1966 153.964 100.349 154.156 101.381 154.54C102.437 154.924 103.337 155.452 104.081 156.124C104.849 156.796 105.437 157.6 105.845 158.536C106.277 159.472 106.493 160.492 106.493 161.596C106.493 162.412 106.265 163.036 105.809 163.468C105.353 163.9 104.717 164.176 103.901 164.296L95.0086 165.628C95.2726 166.42 95.8126 167.02 96.6286 167.428C97.4446 167.812 98.3806 168.004 99.4366 168.004C100.421 168.004 101.345 167.884 102.209 167.644C103.097 167.38 103.817 167.08 104.369 166.744C104.753 166.984 105.077 167.32 105.341 167.752C105.605 168.184 105.737 168.64 105.737 169.12C105.737 170.2 105.233 171.004 104.225 171.532C103.457 171.94 102.593 172.216 101.633 172.36C100.673 172.504 99.7726 172.576 98.9326 172.576ZM97.9246 158.428C97.3486 158.428 96.8446 158.524 96.4126 158.716C96.0046 158.908 95.6686 159.16 95.4046 159.472C95.1406 159.76 94.9366 160.096 94.7926 160.48C94.6726 160.84 94.6006 161.212 94.5766 161.596L100.733 160.588C100.661 160.108 100.397 159.628 99.9406 159.148C99.4846 158.668 98.8126 158.428 97.9246 158.428Z" fill="#54B488"/>
</svg>
