<svg width="179" height="228" viewBox="0 0 179 228" fill="none" xmlns="http://www.w3.org/2000/svg">
<path d="M1.332 192.224C1.164 191.96 1.008 191.6 0.864 191.144C0.72 190.688 0.648 190.208 0.648 189.704C0.648 188.768 0.852 188.096 1.26 187.688C1.692 187.28 2.244 187.076 2.916 187.076H18.612C18.78 187.34 18.936 187.7 19.08 188.156C19.224 188.612 19.296 189.092 19.296 189.596C19.296 190.532 19.08 191.204 18.648 191.612C18.24 192.02 17.7 192.224 17.028 192.224H13.032V208.856C12.768 208.928 12.348 209 11.772 209.072C11.22 209.144 10.668 209.18 10.116 209.18C9.564 209.18 9.072 209.132 8.64 209.036C8.232 208.964 7.884 208.82 7.596 208.604C7.308 208.388 7.092 208.088 6.948 207.704C6.804 207.32 6.732 206.816 6.732 206.192V192.224H1.332ZM28.9834 209.576C27.5674 209.576 26.2474 209.384 25.0234 209C23.8234 208.592 22.7674 207.992 21.8554 207.2C20.9674 206.408 20.2594 205.412 19.7314 204.212C19.2274 203.012 18.9754 201.608 18.9754 200C18.9754 198.416 19.2274 197.06 19.7314 195.932C20.2594 194.78 20.9434 193.844 21.7834 193.124C22.6234 192.38 23.5834 191.84 24.6634 191.504C25.7434 191.144 26.8474 190.964 27.9754 190.964C29.2474 190.964 30.3994 191.156 31.4314 191.54C32.4874 191.924 33.3874 192.452 34.1314 193.124C34.8994 193.796 35.4874 194.6 35.8954 195.536C36.3274 196.472 36.5434 197.492 36.5434 198.596C36.5434 199.412 36.3154 200.036 35.8594 200.468C35.4034 200.9 34.7674 201.176 33.9514 201.296L25.0594 202.628C25.3234 203.42 25.8634 204.02 26.6794 204.428C27.4954 204.812 28.4314 205.004 29.4874 205.004C30.4714 205.004 31.3954 204.884 32.2594 204.644C33.1474 204.38 33.8674 204.08 34.4194 203.744C34.8034 203.984 35.1274 204.32 35.3914 204.752C35.6554 205.184 35.7874 205.64 35.7874 206.12C35.7874 207.2 35.2834 208.004 34.2754 208.532C33.5074 208.94 32.6434 209.216 31.6834 209.36C30.7234 209.504 29.8234 209.576 28.9834 209.576ZM27.9754 195.428C27.3994 195.428 26.8954 195.524 26.4634 195.716C26.0554 195.908 25.7194 196.16 25.4554 196.472C25.1914 196.76 24.9874 197.096 24.8434 197.48C24.7234 197.84 24.6514 198.212 24.6274 198.596L30.7834 197.588C30.7114 197.108 30.4474 196.628 29.9914 196.148C29.5354 195.668 28.8634 195.428 27.9754 195.428ZM49.3532 195.788C48.7532 195.788 48.1772 195.884 47.6252 196.076C47.0972 196.268 46.6292 196.556 46.2212 196.94C45.8372 197.3 45.5252 197.756 45.2852 198.308C45.0452 198.86 44.9252 199.508 44.9252 200.252C44.9252 201.74 45.3452 202.856 46.1852 203.6C47.0492 204.344 48.0932 204.716 49.3172 204.716C50.0372 204.716 50.6612 204.632 51.1892 204.464C51.7172 204.296 52.1852 204.116 52.5932 203.924C53.0732 204.26 53.4332 204.632 53.6732 205.04C53.9132 205.424 54.0332 205.892 54.0332 206.444C54.0332 207.428 53.5652 208.196 52.6292 208.748C51.6932 209.276 50.3972 209.54 48.7412 209.54C47.2292 209.54 45.8612 209.324 44.6372 208.892C43.4132 208.436 42.3572 207.812 41.4692 207.02C40.6052 206.204 39.9332 205.232 39.4532 204.104C38.9732 202.976 38.7332 201.728 38.7332 200.36C38.7332 198.776 38.9852 197.396 39.4892 196.22C40.0172 195.02 40.7252 194.036 41.6132 193.268C42.5012 192.5 43.5212 191.924 44.6732 191.54C45.8492 191.156 47.0852 190.964 48.3812 190.964C50.1092 190.964 51.4412 191.276 52.3772 191.9C53.3132 192.524 53.7812 193.328 53.7812 194.312C53.7812 194.768 53.6732 195.2 53.4572 195.608C53.2412 195.992 52.9892 196.328 52.7012 196.616C52.2932 196.424 51.8012 196.244 51.2252 196.076C50.6492 195.884 50.0252 195.788 49.3532 195.788ZM68.1905 197.912C68.1905 197.168 67.9745 196.628 67.5425 196.292C67.1345 195.932 66.5705 195.752 65.8505 195.752C65.3705 195.752 64.8905 195.812 64.4105 195.932C63.9545 196.052 63.5585 196.232 63.2225 196.472V208.964C62.9825 209.036 62.5985 209.108 62.0705 209.18C61.5665 209.252 61.0385 209.288 60.4865 209.288C59.9585 209.288 59.4785 209.252 59.0465 209.18C58.6385 209.108 58.2905 208.964 58.0025 208.748C57.7145 208.532 57.4865 208.244 57.3185 207.884C57.1745 207.5 57.1025 207.008 57.1025 206.408V195.608C57.1025 194.96 57.2345 194.432 57.4985 194.024C57.7865 193.616 58.1705 193.244 58.6505 192.908C59.4665 192.332 60.4865 191.864 61.7105 191.504C62.9585 191.144 64.3385 190.964 65.8505 190.964C68.5625 190.964 70.6505 191.564 72.1145 192.764C73.5785 193.94 74.3105 195.584 74.3105 197.696V208.964C74.0705 209.036 73.6865 209.108 73.1585 209.18C72.6545 209.252 72.1265 209.288 71.5745 209.288C71.0465 209.288 70.5665 209.252 70.1345 209.18C69.7265 209.108 69.3785 208.964 69.0905 208.748C68.8025 208.532 68.5745 208.244 68.4065 207.884C68.2625 207.5 68.1905 207.008 68.1905 206.408V197.912ZM96.1988 200.252C96.1988 201.74 95.9708 203.072 95.5148 204.248C95.0588 205.4 94.4108 206.372 93.5708 207.164C92.7548 207.956 91.7708 208.556 90.6188 208.964C89.4668 209.372 88.1828 209.576 86.7668 209.576C85.3508 209.576 84.0668 209.36 82.9148 208.928C81.7628 208.496 80.7668 207.884 79.9268 207.092C79.1108 206.276 78.4748 205.292 78.0188 204.14C77.5628 202.988 77.3348 201.692 77.3348 200.252C77.3348 198.836 77.5628 197.552 78.0188 196.4C78.4748 195.248 79.1108 194.276 79.9268 193.484C80.7668 192.668 81.7628 192.044 82.9148 191.612C84.0668 191.18 85.3508 190.964 86.7668 190.964C88.1828 190.964 89.4668 191.192 90.6188 191.648C91.7708 192.08 92.7548 192.704 93.5708 193.52C94.4108 194.312 95.0588 195.284 95.5148 196.436C95.9708 197.588 96.1988 198.86 96.1988 200.252ZM83.5988 200.252C83.5988 201.716 83.8748 202.844 84.4268 203.636C85.0028 204.404 85.7948 204.788 86.8027 204.788C87.8108 204.788 88.5788 204.392 89.1068 203.6C89.6588 202.808 89.9348 201.692 89.9348 200.252C89.9348 198.812 89.6588 197.708 89.1068 196.94C88.5548 196.148 87.7748 195.752 86.7668 195.752C85.7588 195.752 84.9788 196.148 84.4268 196.94C83.8748 197.708 83.5988 198.812 83.5988 200.252ZM105.413 208.964C105.149 209.012 104.753 209.072 104.225 209.144C103.721 209.24 103.205 209.288 102.677 209.288C102.149 209.288 101.669 209.252 101.237 209.18C100.829 209.108 100.481 208.964 100.193 208.748C99.9045 208.532 99.6765 208.244 99.5085 207.884C99.3645 207.5 99.2925 207.008 99.2925 206.408V185.528C99.5565 185.48 99.9405 185.42 100.445 185.348C100.973 185.252 101.501 185.204 102.029 185.204C102.557 185.204 103.025 185.24 103.433 185.312C103.865 185.384 104.225 185.528 104.513 185.744C104.801 185.96 105.017 186.26 105.161 186.644C105.329 187.004 105.413 187.484 105.413 188.084V208.964ZM127.382 200.252C127.382 201.74 127.154 203.072 126.698 204.248C126.242 205.4 125.594 206.372 124.754 207.164C123.938 207.956 122.954 208.556 121.802 208.964C120.65 209.372 119.366 209.576 117.95 209.576C116.534 209.576 115.25 209.36 114.098 208.928C112.946 208.496 111.95 207.884 111.11 207.092C110.294 206.276 109.658 205.292 109.202 204.14C108.746 202.988 108.518 201.692 108.518 200.252C108.518 198.836 108.746 197.552 109.202 196.4C109.658 195.248 110.294 194.276 111.11 193.484C111.95 192.668 112.946 192.044 114.098 191.612C115.25 191.18 116.534 190.964 117.95 190.964C119.366 190.964 120.65 191.192 121.802 191.648C122.954 192.08 123.938 192.704 124.754 193.52C125.594 194.312 126.242 195.284 126.698 196.436C127.154 197.588 127.382 198.86 127.382 200.252ZM114.782 200.252C114.782 201.716 115.058 202.844 115.61 203.636C116.186 204.404 116.978 204.788 117.986 204.788C118.994 204.788 119.762 204.392 120.29 203.6C120.842 202.808 121.118 201.692 121.118 200.252C121.118 198.812 120.842 197.708 120.29 196.94C119.738 196.148 118.958 195.752 117.95 195.752C116.942 195.752 116.162 196.148 115.61 196.94C115.058 197.708 114.782 198.812 114.782 200.252ZM138.9 190.964C140.268 190.964 141.504 191.144 142.608 191.504C143.736 191.84 144.684 192.284 145.452 192.836C145.932 193.172 146.304 193.544 146.568 193.952C146.856 194.36 147 194.888 147 195.536V208.136C147 209.408 146.76 210.5 146.28 211.412C145.8 212.348 145.14 213.116 144.3 213.716C143.484 214.34 142.512 214.796 141.384 215.084C140.28 215.372 139.092 215.516 137.82 215.516C135.636 215.516 133.92 215.216 132.672 214.616C131.424 214.04 130.8 213.092 130.8 211.772C130.8 211.22 130.908 210.728 131.124 210.296C131.364 209.888 131.628 209.576 131.916 209.36C132.612 209.744 133.392 210.068 134.256 210.332C135.144 210.596 136.056 210.728 136.992 210.728C138.288 210.728 139.32 210.512 140.088 210.08C140.856 209.648 141.24 208.952 141.24 207.992V207.416C140.256 207.848 139.056 208.064 137.64 208.064C136.56 208.064 135.528 207.908 134.544 207.596C133.584 207.26 132.732 206.756 131.988 206.084C131.268 205.388 130.68 204.5 130.224 203.42C129.792 202.34 129.576 201.056 129.576 199.568C129.576 198.104 129.804 196.832 130.26 195.752C130.74 194.672 131.388 193.784 132.204 193.088C133.044 192.368 134.028 191.84 135.156 191.504C136.308 191.144 137.556 190.964 138.9 190.964ZM141.132 196.184C140.964 196.088 140.712 195.992 140.376 195.896C140.064 195.8 139.668 195.752 139.188 195.752C138.012 195.752 137.124 196.088 136.524 196.76C135.948 197.408 135.66 198.344 135.66 199.568C135.66 200.96 135.948 201.968 136.524 202.592C137.124 203.192 137.88 203.492 138.792 203.492C139.776 203.492 140.556 203.264 141.132 202.808V196.184ZM150.65 186.644C150.65 185.732 150.95 184.964 151.55 184.34C152.174 183.716 152.99 183.404 153.998 183.404C155.006 183.404 155.81 183.716 156.41 184.34C157.034 184.964 157.346 185.732 157.346 186.644C157.346 187.556 157.034 188.324 156.41 188.948C155.81 189.572 155.006 189.884 153.998 189.884C152.99 189.884 152.174 189.572 151.55 188.948C150.95 188.324 150.65 187.556 150.65 186.644ZM157.058 208.964C156.794 209.012 156.398 209.072 155.87 209.144C155.366 209.24 154.85 209.288 154.322 209.288C153.794 209.288 153.314 209.252 152.882 209.18C152.474 209.108 152.126 208.964 151.838 208.748C151.55 208.532 151.322 208.244 151.154 207.884C151.01 207.5 150.938 207.008 150.938 206.408V191.756C151.202 191.708 151.586 191.648 152.09 191.576C152.618 191.48 153.146 191.432 153.674 191.432C154.202 191.432 154.67 191.468 155.078 191.54C155.51 191.612 155.87 191.756 156.158 191.972C156.446 192.188 156.662 192.488 156.806 192.872C156.974 193.232 157.058 193.712 157.058 194.312V208.964ZM168.442 205.112C168.85 205.112 169.294 205.076 169.774 205.004C170.278 204.908 170.65 204.788 170.89 204.644V201.764L168.298 201.98C167.626 202.028 167.074 202.172 166.642 202.412C166.21 202.652 165.994 203.012 165.994 203.492C165.994 203.972 166.174 204.368 166.534 204.68C166.918 204.968 167.554 205.112 168.442 205.112ZM168.154 190.964C169.45 190.964 170.626 191.096 171.682 191.36C172.762 191.624 173.674 192.032 174.418 192.584C175.186 193.112 175.774 193.796 176.182 194.636C176.59 195.452 176.794 196.424 176.794 197.552V205.616C176.794 206.24 176.614 206.756 176.254 207.164C175.918 207.548 175.51 207.884 175.03 208.172C173.47 209.108 171.274 209.576 168.442 209.576C167.17 209.576 166.018 209.456 164.986 209.216C163.978 208.976 163.102 208.616 162.358 208.136C161.638 207.656 161.074 207.044 160.666 206.3C160.282 205.556 160.09 204.692 160.09 203.708C160.09 202.052 160.582 200.78 161.566 199.892C162.55 199.004 164.074 198.452 166.138 198.236L170.854 197.732V197.48C170.854 196.784 170.542 196.292 169.918 196.004C169.318 195.692 168.442 195.536 167.29 195.536C166.378 195.536 165.49 195.632 164.626 195.824C163.762 196.016 162.982 196.256 162.286 196.544C161.974 196.328 161.71 196.004 161.494 195.572C161.278 195.116 161.17 194.648 161.17 194.168C161.17 193.544 161.314 193.052 161.602 192.692C161.914 192.308 162.382 191.984 163.006 191.72C163.702 191.456 164.518 191.264 165.454 191.144C166.414 191.024 167.314 190.964 168.154 190.964Z" fill="#54B488"/>
<path d="M132.541 44.2132C133.458 44.2132 134.338 43.856 134.987 43.2201C135.636 42.5842 136 41.7218 136 40.8226V14.0201C135.998 10.3024 134.49 6.73764 131.808 4.10886C129.126 1.48008 125.489 0.00224564 121.696 0L57.3037 0C53.5108 0.00224564 49.874 1.48008 47.192 4.10886C44.51 6.73764 43.0023 10.3024 43 14.0201V139.014C43.0114 142.726 44.5232 146.282 47.2042 148.903C49.8852 151.525 53.5168 152.998 57.3037 153H121.696C125.483 152.998 129.115 151.525 131.796 148.903C134.477 146.282 135.989 142.726 136 139.014V58.5893C136 57.69 135.636 56.8276 134.987 56.1917C134.338 55.5559 133.458 55.1987 132.541 55.1987C131.623 55.1987 130.744 55.5559 130.095 56.1917C129.446 56.8276 129.082 57.69 129.082 58.5893V130.537H49.9184V22.0388H129.082V40.8226C129.082 41.7218 129.446 42.5842 130.095 43.2201C130.744 43.856 131.623 44.2132 132.541 44.2132ZM129.082 137.319V139.014C129.072 140.928 128.29 142.76 126.906 144.111C125.522 145.461 123.649 146.219 121.696 146.219H57.3037C55.351 146.219 53.4777 145.461 52.0937 144.111C50.7096 142.76 49.9275 140.928 49.9184 139.014V137.319H129.082ZM49.9184 15.2576V14.0201C49.9184 12.1002 50.6965 10.2589 52.0815 8.90139C53.4665 7.54383 55.345 6.78116 57.3037 6.78116H121.696C123.655 6.78116 125.534 7.54383 126.919 8.90139C128.304 10.2589 129.082 12.1002 129.082 14.0201V15.2576H49.9184Z" fill="#54B488"/>
</svg>
